<?xml version="1.0" encoding="UTF-8" standalone="no"?>
<!-- Created with Inkscape (http://www.inkscape.org/) -->

<svg
   width="256"
   height="256"
   viewBox="0 0 67.733332 67.733335"
   version="1.1"
   id="svg5"
   xmlns="http://www.w3.org/2000/svg"
   xmlns:svg="http://www.w3.org/2000/svg">
  <defs
     id="defs2" />
  <g
     id="layer1">
    <g
       id="g26002"
       transform="matrix(1.5,0,0,1.5,-16.933333,-1.8487648)">
      <path
         id="path12437"
         transform="matrix(0.21771408,0,0,0.21771408,73.025692,24.874779)"
         style="fill:#f59e00;fill-opacity:1"
         d="m -110.41995,43.223174 -55.55561,-2e-6 -27.7778,-48.1125685 27.77781,-48.1125655 55.5556,3e-6 27.777803,48.1125679 z" />
      <path
         id="path13446"
         transform="matrix(0.21771408,0,0,0.21771408,54.882836,14.399994)"
         style="fill:#004d6e;fill-opacity:1"
         d="m -110.41995,43.223174 -55.55561,-2e-6 -27.7778,-48.1125685 27.77781,-48.1125655 55.5556,3e-6 27.777803,48.1125679 z" />
      <path
         id="path13448"
         transform="matrix(0.21771408,0,0,0.21771408,54.882835,35.349561)"
         style="fill:#706f6f;fill-opacity:1"
         d="m -110.41995,43.223174 -55.55561,-2e-6 -27.7778,-48.1125685 27.77781,-48.1125655 55.5556,3e-6 27.777803,48.1125679 z" />
      <path
         id="path25844"
         transform="matrix(0.21771408,0,0,0.21771408,60.930454,24.874778)"
         style="fill:#ffffff;fill-opacity:1"
         d="m -110.41995,43.223174 -55.55561,-2e-6 -27.7778,-48.1125685 27.77781,-48.1125655 55.5556,3e-6 27.777803,48.1125679 z" />
    </g>
  </g>
</svg>
